<svg width="50" height="50" viewBox="0 0 50 50" fill="none" xmlns="http://www.w3.org/2000/svg">
<path d="M42 42L33.7966 33.7966M33.7966 33.7966C35.1999 32.3934 36.313 30.7276 37.0724 28.8942C37.8318 27.0608 38.2227 25.0958 38.2227 23.1113C38.2227 21.1269 37.8318 19.1619 37.0724 17.3285C36.313 15.4951 35.1999 13.8292 33.7966 12.426C32.3934 11.0228 30.7276 9.9097 28.8942 9.15028C27.0608 8.39087 25.0958 8 23.1113 8C21.1269 8 19.1619 8.39087 17.3285 9.15028C15.4951 9.9097 13.8292 11.0228 12.426 12.426C9.59208 15.2599 8 19.1036 8 23.1113C8 27.1191 9.59208 30.9627 12.426 33.7966C15.2599 36.6306 19.1036 38.2227 23.1113 38.2227C27.1191 38.2227 30.9627 36.6306 33.7966 33.7966Z" stroke="white" stroke-width="5" stroke-linecap="round" stroke-linejoin="round"/>
</svg>
