<svg width="164" height="164" viewBox="0 0 164 164" fill="none" xmlns="http://www.w3.org/2000/svg">
<g filter="url(#filter0_d_50_64)">
<path fill-rule="evenodd" clip-rule="evenodd" d="M82 35.3334C69.6232 35.3334 57.7534 40.25 49.0017 49.0017C40.25 57.7534 35.3333 69.6233 35.3333 82C35.3333 94.3768 40.25 106.247 49.0017 114.998C57.7534 123.75 69.6232 128.667 82 128.667C94.3768 128.667 106.247 123.75 114.998 114.998C123.75 106.247 128.667 94.3768 128.667 82C128.667 69.6233 123.75 57.7534 114.998 49.0017C106.247 40.25 94.3768 35.3334 82 35.3334ZM23.6667 82C23.6667 49.7825 49.7825 23.6667 82 23.6667C114.217 23.6667 140.333 49.7825 140.333 82C140.333 114.218 114.217 140.333 82 140.333C49.7825 140.333 23.6667 114.218 23.6667 82ZM61.5833 70.3334C60.4458 70.3334 58.9933 71.0567 58.0483 72.9467C57.3481 74.3175 56.1344 75.3559 54.6718 75.8357C53.2092 76.3155 51.6163 76.1977 50.2402 75.5081C48.864 74.8185 47.8162 73.6129 47.3251 72.1541C46.834 70.6953 46.9394 69.1015 47.6183 67.72C50.1617 62.6334 55.2425 58.6667 61.5833 58.6667C67.9242 58.6667 72.9992 62.6334 75.5483 67.72C76.2273 69.1015 76.3327 70.6953 75.8416 72.1541C75.3504 73.6129 74.3026 74.8185 72.9265 75.5081C71.5503 76.1977 69.9574 76.3155 68.4948 75.8357C67.0322 75.3559 65.8186 74.3175 65.1183 72.9467C64.1733 71.0567 62.7267 70.3334 61.5833 70.3334ZM102.417 70.3334C101.279 70.3334 99.8267 71.0567 98.8817 72.9467C98.5421 73.6376 98.0691 74.2545 97.49 74.7617C96.9109 75.269 96.2372 75.6566 95.5076 75.9022C94.7779 76.1478 94.0069 76.2466 93.239 76.1928C92.471 76.1391 91.7213 75.9338 91.033 75.5889C90.3447 75.244 89.7316 74.7663 89.2288 74.1833C88.726 73.6003 88.3437 72.9235 88.1037 72.192C87.8637 71.4605 87.7709 70.6888 87.8307 69.9212C87.8904 69.1537 88.1014 68.4056 88.4517 67.72C91.0008 62.6334 96.0758 58.6667 102.417 58.6667C108.757 58.6667 113.832 62.6334 116.382 67.72C117.061 69.1015 117.166 70.6953 116.675 72.1541C116.184 73.6129 115.136 74.8185 113.76 75.5081C112.384 76.1977 110.791 76.3155 109.328 75.8357C107.866 75.3559 106.652 74.3175 105.952 72.9467C105.007 71.0567 103.56 70.3334 102.417 70.3334ZM62.19 95.6384C62.697 95.0636 63.3122 94.5943 64.0006 94.2574C64.689 93.9205 65.437 93.7226 66.202 93.6749C66.9669 93.6273 67.7337 93.7308 68.4586 93.9796C69.1835 94.2284 69.8523 94.6176 70.4267 95.125C73.5183 97.855 77.5608 99.5 82 99.5C86.4392 99.5 90.4875 97.855 93.5733 95.125C94.7337 94.1009 96.2533 93.5796 97.798 93.6758C99.3427 93.7721 100.786 94.478 101.81 95.6384C102.834 96.7987 103.355 98.3183 103.259 99.863C103.163 101.408 102.457 102.851 101.297 103.875C95.9719 108.583 89.1073 111.176 82 111.167C74.8927 111.176 68.0281 108.583 62.7033 103.875C62.1285 103.368 61.6593 102.753 61.3224 102.064C60.9855 101.376 60.7876 100.628 60.7399 99.8631C60.6922 99.0981 60.7958 98.3313 61.0446 97.6064C61.2934 96.8815 61.6826 96.2128 62.19 95.6384Z" fill="white"/>
</g>
<defs>
<filter id="filter0_d_50_64" x="-11.2143" y="-11.2143" width="186.429" height="186.429" filterUnits="userSpaceOnUse" color-interpolation-filters="sRGB">
<feFlood flood-opacity="0" result="BackgroundImageFix"/>
<feColorMatrix in="SourceAlpha" type="matrix" values="0 0 0 0 0 0 0 0 0 0 0 0 0 0 0 0 0 0 127 0" result="hardAlpha"/>
<feOffset/>
<feGaussianBlur stdDeviation="11.6071"/>
<feComposite in2="hardAlpha" operator="out"/>
<feColorMatrix type="matrix" values="0 0 0 0 0.967448 0 0 0 0 0.584951 0 0 0 0 0.307971 0 0 0 0.25 0"/>
<feBlend mode="normal" in2="BackgroundImageFix" result="effect1_dropShadow_50_64"/>
<feBlend mode="normal" in="SourceGraphic" in2="effect1_dropShadow_50_64" result="shape"/>
</filter>
</defs>
</svg>
