<svg width="100" height="100" viewBox="0 0 100 100" fill="none" xmlns="http://www.w3.org/2000/svg">
<rect width="100" height="100" fill="#232323"/>
<path d="M51.698 40.906C65.276 42.332 74.762 43.262 74.762 54.236C74.762 64.652 65.896 68.93 48.846 68.93C30.494 68.93 23.24 63.04 23.24 53.926H38.616C38.616 57.956 43.576 59.072 49.652 59.072C55.48 59.072 58.952 58.204 58.952 55.786C58.952 52.872 54.736 53.058 42.274 51.136C28.944 49.09 24.232 46.3 24.232 37.62C24.232 28.816 31.238 23.732 48.102 23.732C66.516 23.732 71.972 30.366 71.972 37.868H57.03C57.03 34.892 53.558 33.59 47.916 33.59C41.964 33.59 38.864 34.458 38.864 36.938C38.864 39.914 44.258 40.162 51.698 40.906ZM24.484 87.364C25.564 87.364 26.446 88.246 26.446 89.308C26.446 90.388 25.564 91.27 24.484 91.27C23.404 91.27 22.54 90.388 22.54 89.308C22.54 88.246 23.404 87.364 24.484 87.364ZM40.3302 88.102V91H27.8922V78.4H32.1582V88.102H40.3302ZM53.0109 91L52.2009 89.056H46.1169L45.3249 91H40.8789L46.6929 78.4H51.6249L57.4569 91H53.0109ZM47.3049 86.14H51.0309L49.1589 81.586L47.3049 86.14ZM70.3971 84.376C72.0171 84.79 73.0431 85.654 73.0431 87.292C73.0431 90.19 71.0811 91 67.1391 91H58.3551V78.4H67.5171C70.5411 78.4 72.5751 79.066 72.5751 81.64C72.5751 83.116 71.7471 83.926 70.3971 84.358V84.376ZM67.0851 81.316H62.6211V83.35H67.0851C68.1471 83.35 68.4171 82.882 68.4171 82.306C68.4171 81.73 68.1471 81.316 67.0851 81.316ZM67.3011 88.102C68.4531 88.102 68.7231 87.598 68.7231 86.932C68.7231 86.338 68.4171 85.924 67.3011 85.924H62.6211V88.102H67.3011Z" fill="white"/>
</svg>
